<svg width="186" height="46" viewBox="0 0 186 46" fill="none" xmlns="http://www.w3.org/2000/svg">
<path d="M27.1562 31.5234C26 33.1797 24.3828 34.4219 22.3047 35.25C20.2422 36.0625 17.8359 36.4688 15.0859 36.4688C12.3047 36.4688 9.83594 35.8203 7.67969 34.5234C5.52344 33.2109 3.85156 31.3516 2.66406 28.9453C1.49219 26.5391 0.890625 23.75 0.859375 20.5781V17.6016C0.859375 12.4609 2.05469 8.47656 4.44531 5.64844C6.85156 2.82031 10.2266 1.40625 14.5703 1.40625C18.1328 1.40625 21 2.32031 23.1719 4.14844C25.3438 5.96094 26.6719 8.53906 27.1562 11.8828H22.6562C21.8125 7.36719 19.125 5.10938 14.5938 5.10938C11.5781 5.10938 9.28906 6.17187 7.72656 8.29688C6.17969 10.4062 5.39844 13.4688 5.38281 17.4844V20.2734C5.38281 24.1016 6.25781 27.1484 8.00781 29.4141C9.75781 31.6641 12.125 32.7891 15.1094 32.7891C16.7969 32.7891 18.2734 32.6016 19.5391 32.2266C20.8047 31.8516 21.8516 31.2188 22.6797 30.3281V22.6641H14.7812V19.0078H27.1562V31.5234ZM49.6562 36C49.4062 35.5 49.2031 34.6094 49.0469 33.3281C47.0312 35.4219 44.625 36.4688 41.8281 36.4688C39.3281 36.4688 37.2734 35.7656 35.6641 34.3594C34.0703 32.9375 33.2734 31.1406 33.2734 28.9688C33.2734 26.3281 34.2734 24.2812 36.2734 22.8281C38.2891 21.3594 41.1172 20.625 44.7578 20.625H48.9766V18.6328C48.9766 17.1172 48.5234 15.9141 47.6172 15.0234C46.7109 14.1172 45.375 13.6641 43.6094 13.6641C42.0625 13.6641 40.7656 14.0547 39.7188 14.8359C38.6719 15.6172 38.1484 16.5625 38.1484 17.6719H33.7891C33.7891 16.4062 34.2344 15.1875 35.125 14.0156C36.0312 12.8281 37.25 11.8906 38.7812 11.2031C40.3281 10.5156 42.0234 10.1719 43.8672 10.1719C46.7891 10.1719 49.0781 10.9062 50.7344 12.375C52.3906 13.8281 53.25 15.8359 53.3125 18.3984V30.0703C53.3125 32.3984 53.6094 34.25 54.2031 35.625V36H49.6562ZM42.4609 32.6953C43.8203 32.6953 45.1094 32.3438 46.3281 31.6406C47.5469 30.9375 48.4297 30.0234 48.9766 28.8984V23.6953H45.5781C40.2656 23.6953 37.6094 25.25 37.6094 28.3594C37.6094 29.7188 38.0625 30.7812 38.9688 31.5469C39.875 32.3125 41.0391 32.6953 42.4609 32.6953ZM59.0547 23.1094C59.0547 19.2188 59.9766 16.0938 61.8203 13.7344C63.6641 11.3594 66.0781 10.1719 69.0625 10.1719C72.0312 10.1719 74.3828 11.1875 76.1172 13.2188V0H80.4531V36H76.4688L76.2578 33.2812C74.5234 35.4062 72.1094 36.4688 69.0156 36.4688C66.0781 36.4688 63.6797 35.2656 61.8203 32.8594C59.9766 30.4531 59.0547 27.3125 59.0547 23.4375V23.1094ZM63.3906 23.6016C63.3906 26.4766 63.9844 28.7266 65.1719 30.3516C66.3594 31.9766 68 32.7891 70.0938 32.7891C72.8438 32.7891 74.8516 31.5547 76.1172 29.0859V17.4375C74.8203 15.0469 72.8281 13.8516 70.1406 13.8516C68.0156 13.8516 66.3594 14.6719 65.1719 16.3125C63.9844 17.9531 63.3906 20.3828 63.3906 23.6016ZM86.1719 23.1094C86.1719 19.1562 87.0859 16.0156 88.9141 13.6875C90.7422 11.3438 93.1641 10.1719 96.1797 10.1719C99.2734 10.1719 101.688 11.2656 103.422 13.4531L103.633 10.6406H107.594V35.3906C107.594 38.6719 106.617 41.2578 104.664 43.1484C102.727 45.0391 100.117 45.9844 96.8359 45.9844C95.0078 45.9844 93.2188 45.5938 91.4688 44.8125C89.7188 44.0312 88.3828 42.9609 87.4609 41.6016L89.7109 39C91.5703 41.2969 93.8438 42.4453 96.5312 42.4453C98.6406 42.4453 100.281 41.8516 101.453 40.6641C102.641 39.4766 103.234 37.8047 103.234 35.6484V33.4688C101.5 35.4688 99.1328 36.4688 96.1328 36.4688C93.1641 36.4688 90.7578 35.2734 88.9141 32.8828C87.0859 30.4922 86.1719 27.2344 86.1719 23.1094ZM90.5312 23.6016C90.5312 26.4609 91.1172 28.7109 92.2891 30.3516C93.4609 31.9766 95.1016 32.7891 97.2109 32.7891C99.9453 32.7891 101.953 31.5469 103.234 29.0625V17.4844C101.906 15.0625 99.9141 13.8516 97.2578 13.8516C95.1484 13.8516 93.5 14.6719 92.3125 16.3125C91.125 17.9531 90.5312 20.3828 90.5312 23.6016ZM124.68 36.4688C121.242 36.4688 118.445 35.3438 116.289 33.0938C114.133 30.8281 113.055 27.8047 113.055 24.0234V23.2266C113.055 20.7109 113.531 18.4688 114.484 16.5C115.453 14.5156 116.797 12.9688 118.516 11.8594C120.25 10.7344 122.125 10.1719 124.141 10.1719C127.438 10.1719 130 11.2578 131.828 13.4297C133.656 15.6016 134.57 18.7109 134.57 22.7578V24.5625H117.391C117.453 27.0625 118.18 29.0859 119.57 30.6328C120.977 32.1641 122.758 32.9297 124.914 32.9297C126.445 32.9297 127.742 32.6172 128.805 31.9922C129.867 31.3672 130.797 30.5391 131.594 29.5078L134.242 31.5703C132.117 34.8359 128.93 36.4688 124.68 36.4688ZM124.141 13.7344C122.391 13.7344 120.922 14.375 119.734 15.6562C118.547 16.9219 117.812 18.7031 117.531 21H130.234V20.6719C130.109 18.4688 129.516 16.7656 128.453 15.5625C127.391 14.3438 125.953 13.7344 124.141 13.7344ZM145.492 4.5V10.6406H150.227V13.9922H145.492V29.7188C145.492 30.7344 145.703 31.5 146.125 32.0156C146.547 32.5156 147.266 32.7656 148.281 32.7656C148.781 32.7656 149.469 32.6719 150.344 32.4844V36C149.203 36.3125 148.094 36.4688 147.016 36.4688C145.078 36.4688 143.617 35.8828 142.633 34.7109C141.648 33.5391 141.156 31.875 141.156 29.7188V13.9922H136.539V10.6406H141.156V4.5H145.492ZM170.078 29.2734C170.078 28.1016 169.633 27.1953 168.742 26.5547C167.867 25.8984 166.328 25.3359 164.125 24.8672C161.938 24.3984 160.195 23.8359 158.898 23.1797C157.617 22.5234 156.664 21.7422 156.039 20.8359C155.43 19.9297 155.125 18.8516 155.125 17.6016C155.125 15.5234 156 13.7656 157.75 12.3281C159.516 10.8906 161.766 10.1719 164.5 10.1719C167.375 10.1719 169.703 10.9141 171.484 12.3984C173.281 13.8828 174.18 15.7812 174.18 18.0938H169.82C169.82 16.9062 169.312 15.8828 168.297 15.0234C167.297 14.1641 166.031 13.7344 164.5 13.7344C162.922 13.7344 161.688 14.0781 160.797 14.7656C159.906 15.4531 159.461 16.3516 159.461 17.4609C159.461 18.5078 159.875 19.2969 160.703 19.8281C161.531 20.3594 163.023 20.8672 165.18 21.3516C167.352 21.8359 169.109 22.4141 170.453 23.0859C171.797 23.7578 172.789 24.5703 173.43 25.5234C174.086 26.4609 174.414 27.6094 174.414 28.9688C174.414 31.2344 173.508 33.0547 171.695 34.4297C169.883 35.7891 167.531 36.4688 164.641 36.4688C162.609 36.4688 160.812 36.1094 159.25 35.3906C157.688 34.6719 156.461 33.6719 155.57 32.3906C154.695 31.0938 154.258 29.6953 154.258 28.1953H158.594C158.672 29.6484 159.25 30.8047 160.328 31.6641C161.422 32.5078 162.859 32.9297 164.641 32.9297C166.281 32.9297 167.594 32.6016 168.578 31.9453C169.578 31.2734 170.078 30.3828 170.078 29.2734ZM180.156 33.7266C180.156 32.9766 180.375 32.3516 180.812 31.8516C181.266 31.3516 181.938 31.1016 182.828 31.1016C183.719 31.1016 184.391 31.3516 184.844 31.8516C185.312 32.3516 185.547 32.9766 185.547 33.7266C185.547 34.4453 185.312 35.0469 184.844 35.5312C184.391 36.0156 183.719 36.2578 182.828 36.2578C181.938 36.2578 181.266 36.0156 180.812 35.5312C180.375 35.0469 180.156 34.4453 180.156 33.7266Z" fill="#ffffff"/>
</svg>
